<svg width="30" height="29" viewBox="0 0 30 29" fill="none" xmlns="http://www.w3.org/2000/svg">
<path d="M18.75 0C10.2255 3.55666 11.25 13.5775 11.25 13.5775C11.25 13.5775 7.5 12.6723 7.5 8.59911C3.02601 10.4777 0 14.0885 0 18.1033C0 24.1023 6.71572 28.9654 15 28.9654C23.2843 28.9654 30 24.1023 30 18.1033C29.9999 9.27798 18.75 7.46762 18.75 0V0ZM16.3176 25.2227C13.3034 25.7668 10.2505 24.4386 9.49887 22.2558C8.74736 20.0731 10.5816 17.8623 13.596 17.3181C20.8732 16.0042 21.7852 13.0409 21.7852 13.0409C21.7852 13.0409 25.4141 23.5803 16.3176 25.2227Z" fill="url(#paint0_linear_1_126)"/>
<defs>
<linearGradient id="paint0_linear_1_126" x1="26.25" y1="-1.23551e-06" x2="4.997" y2="29.6793" gradientUnits="userSpaceOnUse">
<stop stop-color="#E250E5"/>
<stop offset="1" stop-color="#4B50E6"/>
</linearGradient>
</defs>
</svg>
